<?xml version="1.0" encoding="utf-8"?>
<!-- Generator: Adobe Illustrator 15.0.0, SVG Export Plug-In . SVG Version: 6.00 Build 0)  -->
<!DOCTYPE svg PUBLIC "-//W3C//DTD SVG 1.1//EN" "http://www.w3.org/Graphics/SVG/1.1/DTD/svg11.dtd">
<svg version="1.1" id="Layer_1" xmlns="http://www.w3.org/2000/svg" xmlns:xlink="http://www.w3.org/1999/xlink" x="0px" y="0px"
	 width="163.33px" height="117.5px" viewBox="0 0 163.33 117.5" enable-background="new 0 0 163.33 117.5" xml:space="preserve">
<g>
	<path fill="#FFFFFF" d="M144.66,81.67c0,11.49-3.08,22.27-8.46,31.54c-17.761,2.83-35.979,4.29-54.54,4.29
		c-18.56,0-36.78-1.46-54.54-4.29c-5.38-9.271-8.46-20.05-8.46-31.54c0-34.8,28.21-63,63-63C116.46,18.67,144.66,46.87,144.66,81.67
		z"/>
	<path fill="#FFFFFF" d="M163.33,81.67c0,9.54-1.641,18.71-4.65,27.221c-3.77,0.859-7.56,1.659-11.369,2.389
		c4.08-9.029,6.35-19.06,6.35-29.609c0-39.76-32.24-72-72-72s-71.99,32.24-71.99,72c0,10.55,2.27,20.58,6.35,29.609
		c-3.81-0.729-7.6-1.52-11.36-2.389C1.64,100.38,0,91.21,0,81.67C0,36.57,36.56,0,81.66,0C126.76,0,163.33,36.57,163.33,81.67z"/>
	<path fill="#FFFFFF" d="M81.66,18.67c-34.79,0-63,28.2-63,63c0,11.49,3.08,22.27,8.46,31.54c17.76,2.83,35.98,4.29,54.54,4.29
		c18.561,0,36.779-1.46,54.54-4.29c5.38-9.271,8.46-20.05,8.46-31.54C144.66,46.87,116.46,18.67,81.66,18.67z"/>
	<path fill="#FFFFFF" d="M81.66,0C36.56,0,0,36.57,0,81.67c0,9.54,1.64,18.71,4.66,27.221c3.76,0.869,7.55,1.659,11.36,2.389
		c-4.08-9.029-6.35-19.06-6.35-29.609c0-39.76,32.23-72,71.99-72s72,32.24,72,72c0,10.55-2.27,20.58-6.35,29.609
		c3.81-0.729,7.6-1.529,11.369-2.389c3.01-8.511,4.65-17.681,4.65-27.221C163.33,36.57,126.76,0,81.66,0z"/>
</g>
</svg>
